<svg width="142" height="30" viewBox="0 0 142 30" fill="none" xmlns="http://www.w3.org/2000/svg">
<path d="M18.008 15.8102C16.7616 18.156 14.3213 19.7534 11.5208 19.7534C7.45769 19.7534 4.15225 16.3917 4.15225 12.2596C4.15225 8.12753 7.45769 4.76537 11.5208 4.76537C14.3213 4.76537 16.7616 6.36278 18.008 8.70854L21.6674 6.70574C19.7222 3.03629 15.9076 0.54248 11.5208 0.54248C5.15802 0.54248 0 5.7889 0 12.259C0 18.729 5.15802 23.9756 11.5208 23.9756C15.9076 23.9756 19.7215 21.4818 21.6674 17.8124L18.008 15.8102Z" fill="#fff"/>
<path d="M24.5327 0H27.9582V23.5484H24.5327V0Z" fill="#fff"/>
<path d="M39.4561 20.7742C41.3593 20.7742 42.7866 19.9033 43.5478 18.7742L46.3707 20.4517C44.9117 22.6452 42.5328 23.9678 39.4244 23.9678C34.1908 23.9678 30.7969 20.3226 30.7969 15.4839C30.7969 10.7097 34.1908 7 39.1706 7C43.8966 7 47.1319 10.871 47.1319 15.5162C47.1319 16 47.0682 16.5162 47.0052 16.9678H34.3812C34.9204 19.484 36.9186 20.7742 39.4561 20.7742ZM43.6747 14.1291C43.1989 11.3549 41.2003 10.1612 39.1388 10.1612C36.5697 10.1612 34.8252 11.7097 34.3495 14.1291H43.6747Z" fill="#fff"/>
<path d="M66.0359 7.41934V23.5484H62.6103V21.2264C61.405 22.936 59.533 23.9683 57.0595 23.9683C52.7458 23.9683 49.1616 20.2586 49.1616 15.4844C49.1616 10.6779 52.7458 7.00049 57.0595 7.00049C59.5336 7.00049 61.405 8.03278 62.6103 9.71029V7.41934H66.0359ZM62.6103 15.4839C62.6103 12.484 60.4535 10.3226 57.5988 10.3226C54.7441 10.3226 52.5873 12.484 52.5873 15.4839C52.5873 18.4838 54.7441 20.6452 57.5988 20.6452C60.4535 20.6452 62.6103 18.484 62.6103 15.4839Z" fill="#fff"/>
<path d="M78.0456 7.12891V10.9031C75.7936 10.7418 73.161 11.8063 73.161 15.4193V23.5483H69.7354V7.41917H73.161V10.129C74.1126 7.93531 76.0473 7.12891 78.0456 7.12891Z" fill="#fff"/>
<path d="M97.754 15.4839C97.754 20.2581 94.1382 23.9678 89.7294 23.9678C87.0332 23.9678 85.0033 22.742 83.7343 20.7743V30H80.9751V7.41934H83.7344V10.1937C85.0033 8.22591 87.0332 7 89.7295 7C94.1382 7 97.754 10.7097 97.754 15.4839ZM94.9945 15.4839C94.9945 12.1936 92.5522 9.7098 89.3804 9.7098C86.1768 9.7098 83.7344 12.1936 83.7344 15.4839C83.7344 18.7742 86.1768 21.2588 89.3804 21.2588C92.5522 21.2588 94.9945 18.7742 94.9945 15.4839Z" fill="#fff"/>
<path d="M100.164 15.4839C100.164 10.7097 103.875 7 108.506 7C113.137 7 116.88 10.7097 116.88 15.4839C116.88 20.2581 113.137 23.9678 108.506 23.9678C103.875 23.9678 100.164 20.2581 100.164 15.4839ZM114.12 15.4839C114.12 12.2258 111.678 9.74191 108.506 9.74191C105.366 9.74191 102.924 12.2258 102.924 15.4839C102.924 18.7419 105.366 21.2263 108.506 21.2263C111.678 21.2263 114.12 18.7419 114.12 15.4839Z" fill="#fff"/>
<path d="M119.258 15.4839C119.258 10.7097 122.969 7 127.6 7C132.231 7 135.974 10.7097 135.974 15.4839C135.974 20.2581 132.231 23.9678 127.6 23.9678C122.97 23.9678 119.258 20.2581 119.258 15.4839ZM133.214 15.4839C133.214 12.2258 130.772 9.74191 127.6 9.74191C124.46 9.74191 122.018 12.2258 122.018 15.4839C122.018 18.7419 124.46 21.2263 127.6 21.2263C130.772 21.2263 133.214 18.7419 133.214 15.4839Z" fill="#fff"/>
<path d="M139.24 0H142V23.5484H139.24V0Z" fill="#fff"/>
</svg>
