<svg width="1440" height="1144" viewBox="0 0 1440 1144" fill="none" xmlns="http://www.w3.org/2000/svg">
<g filter="url(#filter0_f)">
<path d="M1681.2 282.646C1257.96 293.071 466.592 787.398 460.696 548.048C454.801 308.698 986.424 -183.698 1409.66 -194.123C1832.9 -204.549 2180.79 -18.9681 2186.68 220.382C2192.58 459.733 2164.48 237.408 1681.2 282.646Z" fill="#2B49D2"/>
</g>
<g filter="url(#filter1_f)">
<path d="M1423.24 452.051C1153.98 458.683 649.717 740.67 646.37 604.79C643.023 468.909 982.044 188.456 1251.3 181.824C1520.56 175.192 1741.56 279.968 1744.9 415.849C1748.25 551.729 1730.75 425.552 1423.24 452.051Z" fill="#2BD282"/>
</g>
<defs>
<filter id="filter0_f" x="-56.998" y="-713" width="2752.36" height="1828.5" filterUnits="userSpaceOnUse" color-interpolation-filters="sRGB">
<feFlood flood-opacity="0" result="BackgroundImageFix"/>
<feBlend mode="normal" in="SourceGraphic" in2="BackgroundImageFix" result="shape"/>
<feGaussianBlur stdDeviation="250" result="effect1_foregroundBlur"/>
</filter>
<filter id="filter1_f" x="136.324" y="-330.185" width="2113.51" height="1473.27" filterUnits="userSpaceOnUse" color-interpolation-filters="sRGB">
<feFlood flood-opacity="0" result="BackgroundImageFix"/>
<feBlend mode="normal" in="SourceGraphic" in2="BackgroundImageFix" result="shape"/>
<feGaussianBlur stdDeviation="250" result="effect1_foregroundBlur"/>
</filter>
</defs>
</svg>
