<svg width="110" height="24" viewBox="0 0 110 24" fill="none" xmlns="http://www.w3.org/2000/svg">
<path d="M0.248 9.98C0.248 15.044 3.536 18.86 8.672 18.86C12.848 18.86 15.92 16.34 16.712 12.5H14.864C14.192 15.404 11.768 17.204 8.672 17.204C4.688 17.204 2.072 14.276 2.072 9.98C2.072 5.684 4.688 2.756 8.672 2.756C11.768 2.756 14.192 4.556 14.864 7.46H16.712C15.92 3.62 12.848 1.1 8.672 1.1C3.536 1.1 0.248 4.916 0.248 9.98ZM21.542 18.5V0.499999H19.838V18.5H21.542ZM36.6883 12.884C36.6883 12.884 36.7123 12.5 36.7123 12.236C36.7123 8.78 34.4803 5.996 30.8323 5.996C27.1603 5.996 24.8323 8.996 24.8323 12.38C24.8323 15.812 26.9923 18.788 30.8563 18.788C33.7603 18.788 35.7762 17.012 36.4963 14.684H34.7203C34.1923 16.172 32.7523 17.252 30.8803 17.252C28.3123 17.252 26.7043 15.356 26.5363 12.884H36.6883ZM30.8323 7.532C33.2323 7.532 34.7923 9.14 35.0083 11.492H26.5843C26.8723 9.236 28.4563 7.532 30.8323 7.532ZM48.0108 12.236V13.652C48.0108 15.38 46.5468 17.372 43.6428 17.372C42.2748 17.372 40.8108 16.892 40.8108 15.14C40.8108 13.916 41.6268 13.1 43.9548 12.788L48.0108 12.236ZM43.4508 18.788C45.5628 18.788 47.2428 17.924 48.1308 16.412C48.1308 17.78 48.3948 18.5 48.3948 18.5H50.0748C49.8348 17.996 49.7148 16.748 49.7148 15.932V10.58C49.7148 7.868 48.1548 5.996 44.6268 5.996C41.2428 5.996 39.7548 7.7 39.4428 9.884H41.1468C41.4828 8.156 42.7548 7.46 44.5548 7.46C46.8588 7.46 48.0108 8.492 48.0108 10.556V10.892L43.7388 11.444C40.5708 11.852 39.1308 13.172 39.1308 15.14C39.1308 17.348 40.5468 18.788 43.4508 18.788ZM59.7509 6.188C59.7509 6.188 59.4629 6.164 59.3429 6.164C57.0869 6.164 55.8869 7.34 55.4309 8.18V6.284H53.7989V18.5H55.5029V11.564C55.5029 9.02 57.0629 7.772 59.1509 7.772C59.4629 7.772 59.7509 7.796 59.7509 7.796V6.188ZM64.709 16.868C65.405 17.948 66.773 18.788 68.693 18.788C72.389 18.788 74.477 15.836 74.477 12.284C74.477 8.708 72.389 5.756 68.693 5.756C66.773 5.756 65.309 6.548 64.493 7.82V6.044H61.853V23.492H64.709V16.868ZM64.613 12.284C64.613 9.98 65.933 8.228 68.117 8.228C70.277 8.228 71.621 9.98 71.621 12.284C71.621 14.516 70.277 16.268 68.117 16.268C65.933 16.268 64.613 14.516 64.613 12.284ZM82.7508 18.788C86.7348 18.788 89.2308 15.788 89.2308 12.284C89.2308 8.78 86.7348 5.756 82.7508 5.756C78.7908 5.756 76.2948 8.78 76.2948 12.284C76.2948 15.788 78.7908 18.788 82.7508 18.788ZM79.1508 12.284C79.1508 9.86 80.6868 8.276 82.7508 8.276C84.8388 8.276 86.3748 9.86 86.3748 12.284C86.3748 14.684 84.8388 16.268 82.7508 16.268C80.6868 16.268 79.1508 14.684 79.1508 12.284ZM97.5164 18.788C101.5 18.788 103.996 15.788 103.996 12.284C103.996 8.78 101.5 5.756 97.5164 5.756C93.5564 5.756 91.0604 8.78 91.0604 12.284C91.0604 15.788 93.5564 18.788 97.5164 18.788ZM93.9164 12.284C93.9164 9.86 95.4524 8.276 97.5164 8.276C99.6044 8.276 101.14 9.86 101.14 12.284C101.14 14.684 99.6044 16.268 97.5164 16.268C95.4524 16.268 93.9164 14.684 93.9164 12.284ZM109.498 18.5V0.499999H106.642V18.5H109.498Z" fill="white"/>
</svg>
